# xmcd
#
# Track frame offsets: 
#        150
#        8793
#        19495
#        30532
#        44143
#        54368
#        92161
#        100002
#        110206
#        119117
#
# Disc length: 1713 seconds
#
# Revision: 0
# Processed by: cddbd v1.5.2PL0 Copyright (c) Steve Scherf et al.
# Submitted via: ExactAudioCopy v1.0b3
#
DISCID=8906af0a
DTITLE=Johnny Cash - The World Of Johnny Cash (2 of 2)
DYEAR=1900
DGENRE=Country
TTITLE0=Accidentally On Purpose
TTITLE1=In The Jailhouse Now
TTITLE2=I Forgot More Than You'll Ever Know
TTITLE3=Casey Jones
TTITLE4=Frankie's Man Johnny
TTITLE5=The Legend Of John Henry's Hammer
TTITLE6=When Papa Played The Dobro
TTITLE7=Busted
TTITLE8=Sing It Pretty, Sue
TTITLE9=Waiting For A Train
EXTD=
EXTT0=
EXTT1=
EXTT2=
EXTT3=
EXTT4=
EXTT5=
EXTT6=
EXTT7=
EXTT8=
EXTT9=
PLAYORDER=
